<?xml version="1.0" standalone="no"?>
<!DOCTYPE svg PUBLIC "-//W3C//DTD SVG 20010904//EN"
 "http://www.w3.org/TR/2001/REC-SVG-20010904/DTD/svg10.dtd">
<svg version="1.0" xmlns="http://www.w3.org/2000/svg"
 width="1168.000000pt" height="1168.000000pt" viewBox="0 0 1168.000000 1168.000000"
 preserveAspectRatio="xMidYMid meet">
<metadata>
Created by potrace 1.16, written by Peter Selinger 2001-2019
</metadata>
<g transform="translate(0.000000,1168.000000) scale(0.100000,-0.100000)"
fill="#000000" stroke="none">
<path d="M6388 7664 c-5 -4 -8 -25 -8 -46 0 -21 -4 -38 -10 -38 -5 0 -10 -7
-10 -15 0 -9 -11 -33 -25 -55 -14 -22 -25 -43 -25 -47 -1 -12 -70 -84 -120
-125 -39 -31 -82 -54 -165 -88 -34 -14 -117 -24 -182 -23 l-63 2 -99 -107
c-54 -59 -111 -122 -127 -141 l-28 -33 60 -57 c86 -82 249 -181 298 -181 8 0
17 -4 20 -9 3 -5 20 -11 38 -14 18 -3 58 -11 88 -17 62 -14 306 -8 355 8 17 6
48 16 70 22 22 6 60 21 85 32 24 11 54 24 65 29 59 25 183 118 237 177 40 43
115 156 137 207 7 17 17 38 22 47 5 10 9 27 9 37 0 11 5 23 10 26 6 3 10 21
10 40 0 19 5 37 10 40 6 3 10 38 10 78 0 63 -1 69 -14 52 -8 -11 -12 -24 -9
-30 3 -5 0 -5 -6 1 -7 7 -29 10 -49 7 l-37 -5 -3 49 c-2 26 -7 64 -12 83 -6
27 -8 12 -9 -65 -1 -71 -6 -106 -16 -119 -8 -11 -15 -32 -15 -47 0 -15 -4 -31
-10 -34 -5 -3 -10 -15 -10 -25 0 -23 -31 -81 -73 -135 -45 -57 -104 -109 -136
-120 -43 -13 -20 52 55 158 19 26 34 54 34 62 0 8 5 15 10 15 6 0 10 9 10 20
0 11 5 20 10 20 6 0 10 11 10 25 0 14 5 25 10 25 6 0 10 13 10 29 0 16 6 40
13 54 14 27 11 87 -4 87 -5 0 -9 -11 -9 -25 0 -14 -8 -29 -20 -35 -16 -8 -20
-8 -20 3 0 9 -11 14 -27 14 -67 0 -145 5 -230 15 -85 11 -94 10 -113 -7 -11
-10 -20 -13 -20 -7 0 7 4 12 10 12 6 0 8 16 5 36 -2 20 0 45 6 56 11 21 8 94
-3 82z"/>
<path d="M5470 7582 c0 -34 -7 -47 -44 -84 -63 -62 -67 -75 -61 -170 7 -101
33 -202 70 -275 23 -46 33 -49 58 -16 12 15 58 66 102 113 44 47 95 103 114
125 l34 39 103 -3 c65 -1 104 1 109 8 3 6 18 11 32 11 54 0 222 119 223 158 0
6 5 12 10 12 6 0 10 5 10 10 0 6 -10 4 -23 -5 -25 -16 -110 -14 -232 5 -33 6
-81 10 -106 10 -25 0 -49 3 -52 6 -4 4 -21 8 -39 9 -163 9 -268 19 -268 27 0
5 -4 6 -10 3 -6 -3 -10 5 -10 19 0 14 -4 28 -10 31 -6 4 -10 -10 -10 -33z"/>
<path d="M7654 5407 c-2 -7 -3 -107 -2 -222 l3 -210 340 0 340 0 3 87 3 88
-248 2 -248 3 0 115 0 115 213 3 c179 2 212 5 212 17 0 13 -42 15 -305 15
-239 0 -307 -3 -311 -13z"/>
<path d="M8460 5368 c0 -26 5 -50 10 -53 6 -3 10 -19 10 -36 0 -16 5 -29 10
-29 6 0 10 -8 10 -19 0 -10 7 -24 15 -31 8 -7 15 -18 15 -24 0 -29 167 -176
199 -176 6 0 19 -4 29 -9 85 -43 257 -55 349 -25 82 26 147 62 182 98 l34 36
-58 62 c-33 35 -60 65 -62 67 -2 3 -16 -7 -31 -20 -84 -77 -230 -91 -351 -35
-39 18 -105 81 -122 117 -28 58 -38 83 -41 103 -3 16 -14 19 -101 20 l-97 1 0
-47z"/>
<path d="M9461 5392 c-8 -18 -11 -93 -9 -222 l3 -195 94 0 93 0 -1 190 c-1
105 1 198 5 208 5 15 26 17 188 18 99 0 199 4 221 9 25 5 -71 8 -262 8 -166 0
-306 3 -311 6 -5 3 -15 -7 -21 -22z"/>
<path d="M7027 5403 c-4 -3 -7 -102 -7 -220 l0 -214 98 3 97 3 3 185 c3 190
-2 255 -18 245 -21 -13 -140 -17 -153 -6 -8 6 -17 8 -20 4z"/>
<path d="M10100 5185 l0 -215 89 0 c59 0 92 4 99 13 14 17 3 398 -12 402 -6 2
-48 6 -93 9 l-83 5 0 -214z"/>
<path d="M6126 4633 c-3 -3 -6 -30 -6 -60 0 -29 -4 -53 -8 -53 -5 0 -23 7 -40
15 -38 19 -72 12 -107 -22 -21 -22 -25 -35 -25 -87 0 -55 3 -65 28 -88 38 -36
64 -41 108 -23 25 10 41 12 49 5 6 -5 15 -7 18 -3 10 10 8 311 -2 317 -4 3
-11 3 -15 -1z m-32 -144 c51 -61 18 -153 -54 -151 -43 1 -69 33 -70 85 0 88
73 127 124 66z"/>
<path d="M4596 4601 c-4 -5 -3 -17 1 -27 4 -11 -1 -22 -13 -31 -18 -13 -18
-15 -1 -24 14 -8 17 -24 17 -84 0 -40 4 -86 10 -100 9 -23 15 -26 50 -23 49 4
58 22 13 26 l-33 3 0 90 c0 81 2 89 19 89 29 0 35 18 9 22 -18 2 -24 11 -26
36 -2 24 -8 32 -22 32 -10 0 -21 -4 -24 -9z"/>
<path d="M9877 4603 c-4 -3 -7 -19 -7 -35 0 -18 -5 -28 -15 -28 -8 0 -15 -4
-15 -10 0 -5 7 -10 15 -10 12 0 15 -16 15 -88 0 -105 13 -125 77 -120 46 4 47
21 1 28 l-33 5 0 85 0 85 28 3 c15 2 27 7 27 12 0 5 -12 10 -27 12 -23 2 -29
8 -31 36 -3 30 -19 41 -35 25z"/>
<path d="M1395 4539 c-10 -25 -1 -224 10 -224 6 0 11 34 13 75 3 65 6 79 29
102 29 30 73 37 91 15 6 -7 12 -53 14 -102 2 -60 7 -90 16 -93 9 -3 12 13 12
57 0 70 12 106 43 132 26 22 47 24 72 5 15 -11 19 -29 22 -102 2 -78 5 -89 20
-89 27 0 31 129 6 181 -27 56 -98 69 -138 24 -17 -18 -18 -18 -38 1 -32 29
-64 34 -104 15 -33 -16 -36 -16 -48 1 -12 16 -14 16 -20 2z"/>
<path d="M1860 4541 c-14 -4 -27 -15 -28 -25 -3 -15 0 -17 14 -11 43 18 79 17
102 -5 34 -32 23 -45 -40 -48 -93 -5 -139 -70 -85 -120 26 -25 94 -30 127 -10
15 10 22 10 32 0 23 -23 28 -12 28 57 0 68 -17 128 -42 148 -18 15 -78 23
-108 14z"/>
<path d="M2246 4535 c-20 -11 -33 -12 -40 -5 -5 5 -16 10 -23 10 -17 0 -19
-215 -2 -225 17 -11 21 0 24 62 2 32 3 66 4 76 2 29 47 67 79 67 44 0 61 -33
64 -124 2 -42 7 -76 13 -76 6 0 11 34 13 77 3 59 -1 86 -13 110 -24 44 -68 55
-119 28z"/>
<path d="M2755 4541 c-76 -31 -93 -152 -30 -211 19 -18 36 -23 78 -23 62 0 77
7 77 34 0 21 -10 25 -27 8 -21 -21 -81 -15 -108 11 -51 48 -23 70 83 67 69 -3
72 -2 72 20 0 71 -78 121 -145 94z"/>
<path d="M3045 4543 c-11 -3 -23 -10 -27 -17 -5 -8 -11 -7 -20 2 -26 26 -35
12 -41 -69 -6 -95 0 -149 18 -149 9 0 14 25 16 86 4 77 6 87 29 104 32 25 72
25 93 2 13 -14 17 -39 17 -106 0 -66 3 -87 13 -84 8 3 13 34 15 95 2 74 0 94
-15 111 -19 23 -64 34 -98 25z"/>
<path d="M3280 4541 c-22 -4 -36 -12 -38 -23 -4 -19 22 -25 33 -8 11 18 70 11
88 -10 32 -38 22 -50 -40 -50 -86 -1 -118 -33 -100 -102 11 -42 71 -55 137
-31 8 3 26 5 39 4 l24 -3 -7 87 c-8 102 -11 109 -39 123 -33 16 -59 20 -97 13z"/>
<path d="M3575 4543 c-11 -3 -25 -11 -32 -20 -10 -13 -12 -12 -21 3 -12 22
-47 11 -38 -12 3 -9 6 -58 6 -110 0 -77 3 -94 15 -94 12 0 15 16 15 80 0 75 2
83 27 106 35 33 82 30 100 -6 7 -14 13 -60 13 -103 0 -59 3 -78 13 -74 19 6
17 189 -4 209 -17 18 -64 28 -94 21z"/>
<path d="M3821 4543 c-13 -3 -35 -16 -50 -31 -22 -22 -26 -35 -26 -84 0 -52 4
-61 32 -90 28 -28 39 -32 84 -32 39 0 55 5 65 19 17 23 1 46 -18 27 -7 -7 -31
-12 -54 -12 -36 0 -46 5 -63 29 -28 39 -26 77 5 118 28 37 65 44 101 18 15
-11 24 -12 29 -4 16 26 -50 53 -105 42z"/>
<path d="M4053 4543 c-54 -11 -93 -86 -78 -151 7 -35 50 -77 88 -86 34 -8 103
9 110 28 9 22 -3 26 -34 11 -36 -19 -84 -9 -109 22 -15 20 -17 28 -8 43 10 16
24 19 88 17 l75 -1 -3 34 c-5 60 -63 97 -129 83z"/>
<path d="M4395 4543 c-28 -7 -42 -20 -60 -56 -36 -72 -2 -164 65 -179 43 -9
95 -1 111 18 18 22 2 29 -34 17 -43 -16 -83 -6 -107 24 -15 19 -17 30 -9 44 5
11 7 29 4 40 -10 30 30 69 71 69 37 0 69 -38 59 -71 -7 -22 20 -38 37 -21 15
15 -9 79 -36 97 -26 17 -73 26 -101 18z"/>
<path d="M4912 4533 c-29 -14 -35 -14 -42 -2 -7 10 -12 11 -20 3 -16 -16 -9
-306 8 -312 9 -3 12 12 12 52 0 31 2 56 4 56 2 0 20 -7 39 -15 88 -37 153 20
143 124 -8 88 -73 130 -144 94z m87 -35 c31 -32 37 -85 16 -124 -31 -58 -103
-52 -130 13 -37 88 54 176 114 111z"/>
<path d="M5193 4542 c-43 -4 -93 -63 -93 -110 0 -38 19 -79 48 -105 24 -22 99
-25 130 -6 50 31 68 121 35 169 -34 50 -54 58 -120 52z m81 -55 c31 -41 33
-79 5 -118 -17 -24 -27 -29 -64 -29 -54 0 -75 25 -75 88 0 87 84 124 134 59z"/>
<path d="M5669 4543 c-31 -5 -61 -35 -79 -81 -16 -42 2 -104 39 -133 32 -26
128 -24 145 3 13 21 0 36 -16 20 -20 -20 -98 -15 -118 8 -23 27 -20 112 5 140
23 25 77 26 97 3 21 -25 29 -51 17 -58 -14 -9 -1 -25 22 -25 23 0 26 32 7 73
-19 38 -65 58 -119 50z"/>
<path d="M6285 4542 c-32 -7 -74 -53 -81 -88 -8 -42 10 -95 41 -124 18 -17 36
-22 75 -22 56 0 94 22 73 43 -8 8 -13 8 -17 0 -4 -6 -29 -11 -56 -11 -42 0
-52 4 -66 25 -25 38 -15 59 31 66 l40 6 -38 2 c-47 1 -58 23 -27 57 45 47 127
14 118 -48 -4 -27 29 -38 38 -14 7 18 -18 77 -38 93 -16 13 -67 21 -93 15z"/>
<path d="M6865 4542 c-55 -7 -97 -84 -80 -149 3 -16 18 -40 33 -55 22 -24 34
-28 78 -28 46 0 55 4 77 30 32 38 42 81 27 123 -19 61 -67 89 -135 79z m80
-47 c19 -18 25 -35 25 -67 0 -63 -21 -88 -75 -88 -37 0 -47 5 -64 29 -28 39
-26 77 5 118 31 41 73 45 109 8z"/>
<path d="M7092 4542 c-13 -4 -30 -18 -37 -32 -20 -37 3 -73 55 -89 48 -14 82
-44 74 -66 -8 -19 -85 -21 -114 -3 -27 17 -37 2 -15 -22 25 -28 124 -29 148
-2 33 36 10 102 -36 102 -9 0 -19 5 -22 10 -3 6 -14 10 -24 10 -29 0 -45 25
-31 49 8 15 21 21 45 21 19 0 35 -4 35 -10 0 -5 7 -10 15 -10 15 0 21 25 7 34
-15 9 -78 14 -100 8z"/>
<path d="M7424 4543 c-56 -11 -88 -95 -64 -167 15 -48 48 -68 109 -68 57 0 71
6 71 33 0 23 1 23 -38 4 -38 -19 -76 -11 -102 22 -16 20 -17 29 -9 45 10 19
18 20 90 15 78 -5 79 -5 79 19 0 24 -15 57 -36 80 -13 14 -69 24 -100 17z"/>
<path d="M7804 4540 c-35 -14 -58 -60 -58 -117 0 -44 4 -57 28 -82 36 -38 67
-45 112 -26 20 8 38 15 41 15 2 0 3 -23 2 -52 -2 -33 1 -53 9 -56 12 -4 16 71
12 243 -2 76 -6 89 -21 62 -10 -17 -12 -17 -43 3 -36 22 -50 23 -82 10z m91
-45 c37 -39 41 -80 13 -120 -20 -30 -29 -35 -63 -35 -34 0 -43 5 -57 31 -25
42 -22 76 8 116 31 40 67 44 99 8z"/>
<path d="M8470 4542 c-14 -2 -31 -9 -38 -15 -10 -8 -16 -7 -22 4 -7 10 -12 11
-20 3 -16 -16 -9 -306 8 -312 9 -3 12 12 12 52 0 31 4 56 8 56 5 0 23 -7 41
-16 39 -20 81 -11 112 22 20 21 24 36 24 88 0 52 -4 65 -25 87 -27 28 -60 38
-100 31z m74 -55 c30 -40 33 -74 9 -116 -16 -27 -24 -31 -60 -31 -35 0 -45 5
-62 29 -28 39 -26 77 5 118 34 45 74 45 108 0z"/>
<path d="M8713 4539 c-100 -29 -96 -205 6 -232 41 -10 100 2 115 25 15 25 3
30 -30 13 -72 -38 -164 35 -101 80 20 15 20 16 2 13 -28 -4 -31 29 -4 58 45
48 124 18 117 -44 -2 -22 2 -28 20 -30 46 -7 13 86 -41 111 -39 19 -39 19 -84
6z"/>
<path d="M8976 4534 c-20 -11 -31 -13 -39 -5 -23 23 -27 7 -27 -105 0 -88 3
-115 13 -112 8 3 13 31 15 79 3 64 6 78 29 101 15 16 36 28 47 28 44 0 51 -15
56 -112 4 -74 8 -93 20 -93 12 0 16 19 21 83 5 69 10 86 29 102 28 24 63 26
81 4 8 -10 16 -52 19 -103 4 -67 8 -86 20 -86 12 0 16 16 18 72 4 91 -20 147
-68 156 -34 7 -70 -3 -89 -27 -13 -15 -16 -15 -35 4 -30 27 -75 33 -110 14z"/>
<path d="M9403 4543 c-34 -6 -83 -71 -83 -111 0 -37 19 -79 46 -104 29 -25
116 -28 149 -5 32 24 9 37 -34 20 -33 -13 -43 -13 -66 -2 -16 8 -34 24 -42 36
-13 19 -12 24 5 41 20 20 20 20 1 25 -24 7 -24 18 2 51 41 53 126 22 121 -45
-2 -23 2 -29 17 -29 28 0 33 13 17 52 -24 57 -71 82 -133 71z"/>
<path d="M9667 4530 c-32 -17 -38 -18 -43 -5 -16 40 -24 5 -24 -100 0 -70 4
-115 10 -115 6 0 10 26 10 59 0 33 5 72 10 86 19 51 73 79 108 56 18 -11 31
-73 32 -143 0 -45 3 -58 15 -58 12 0 15 17 15 89 0 79 -3 93 -22 115 -32 36
-66 40 -111 16z"/>
<path d="M10055 4543 c-40 -11 -57 -61 -32 -93 7 -9 37 -25 67 -37 46 -17 55
-24 55 -44 0 -22 -5 -24 -49 -27 -27 -2 -54 2 -59 7 -15 15 -27 14 -27 -4 0
-23 37 -36 96 -33 48 3 58 7 72 31 15 25 15 29 0 54 -11 18 -33 32 -68 43 -58
18 -73 35 -57 62 14 21 58 24 87 6 24 -15 39 -3 19 17 -16 16 -74 26 -104 18z"/>
<path d="M5388 4515 c-34 -45 -18 -72 62 -101 61 -23 78 -54 40 -74 -21 -11
-86 -4 -96 11 -8 14 -24 10 -24 -6 0 -38 132 -51 164 -16 26 29 17 72 -19 90
-16 8 -38 18 -47 23 -10 4 -24 8 -32 8 -19 0 -28 28 -16 51 12 22 68 27 88 7
17 -17 28 -2 12 17 -8 10 -30 15 -64 15 -42 -1 -54 -5 -68 -25z"/>
<path d="M8020 4442 c0 -86 3 -101 20 -117 23 -21 92 -24 115 -5 12 10 18 10
30 0 32 -27 40 -6 40 106 0 92 -2 109 -16 112 -13 2 -17 -11 -22 -78 -6 -97
-21 -120 -77 -120 -47 0 -59 22 -62 119 -2 49 -7 76 -15 79 -10 3 -13 -21 -13
-96z"/>
<path d="M0 20 c0 -20 7 -20 5840 -20 5833 0 5840 0 5840 20 0 20 -7 20 -5840
20 -5833 0 -5840 0 -5840 -20z"/>
</g>
</svg>
